# xmcd
#
# Track frame offsets: 
#        150
#        24432
#        39881
#        52424
#        66762
#        81722
#        95954
#        113188
#        127049
#        141797
#
# Disc length: 2278 seconds
#
# Revision: 5
# Processed by: cddbd v1.5.2PL0 Copyright (c) Steve Scherf et al.
# Submitted via: ExactAudioCopyFreeDBPlugin 1.0
#
DISCID=9608e40a
DTITLE=Bill Withers - 1974 - +'Justments
DYEAR=1974
DGENRE=Soul
TTITLE0=You
TTITLE1=The Same Love That Made Me Laugh
TTITLE2=Stories
TTITLE3=Green Grass
TTITLE4=Ruby Lee
TTITLE5=Heartbreak Road
TTITLE6=Can We Pretend
TTITLE7=Liza
TTITLE8=Make a Smile for Me
TTITLE9=Railroad Man
EXTD=
EXTT0=
EXTT1=
EXTT2=
EXTT3=
EXTT4=
EXTT5=
EXTT6=
EXTT7=
EXTT8=
EXTT9=
PLAYORDER=
